<?xml version="1.0" encoding="iso-8859-1"?>
<!-- Generator: Adobe Illustrator 19.0.0, SVG Export Plug-In . SVG Version: 6.00 Build 0)  -->
<svg version="1.1" id="Capa_1" xmlns="http://www.w3.org/2000/svg" xmlns:xlink="http://www.w3.org/1999/xlink" x="0px" y="0px"
	 viewBox="0 0 409.6 409.6" style="enable-background:new 0 0 409.6 409.6;" xml:space="preserve">
<g>
	<g>
		<path d="M375.465,0h-238.93C117.765,0,102.4,15.35,102.4,34.135V273.07c0,18.76,15.365,34.13,34.135,34.13h238.93
			c18.77,0,34.135-15.37,34.135-34.13V34.135C409.6,15.35,394.235,0,375.465,0z M375.465,273.07h-238.93V34.135h238.93V273.07z"/>
	</g>
</g>
<g>
	<g>
		<path d="M341.335,153.615l-0.036-68.28c0.015-9.416-7.613-17.05-17.05-17.065h-68.265v25.6l41.6,0.015L170.665,220.8l18.068,18.13
			l126.981-126.961l-0.015,41.631L341.335,153.615z"/>
	</g>
</g>
<g>
	<g>
		<path d="M170.665,341.33v34.14H34.135V238.93h34.13V204.8h-51.2C7.685,204.8,0,212.48,0,221.87v170.66
			c0,9.385,7.685,17.07,17.065,17.07h170.67c9.38,0,17.065-7.685,17.065-17.07v-51.2H170.665z"/>
	</g>
</g>
<g>
</g>
<g>
</g>
<g>
</g>
<g>
</g>
<g>
</g>
<g>
</g>
<g>
</g>
<g>
</g>
<g>
</g>
<g>
</g>
<g>
</g>
<g>
</g>
<g>
</g>
<g>
</g>
<g>
</g>
</svg>
