<?xml version="1.0" encoding="iso-8859-1"?>
<!-- Generator: Adobe Illustrator 19.0.0, SVG Export Plug-In . SVG Version: 6.00 Build 0)  -->
<svg version="1.1" id="Layer_1" xmlns="http://www.w3.org/2000/svg" xmlns:xlink="http://www.w3.org/1999/xlink" x="0px" y="0px"
	 viewBox="0 0 512.003 512.003" style="enable-background:new 0 0 512.003 512.003;" xml:space="preserve">
<g>
	<g>
		<g>
			<path d="M489.886,467.707c-0.006,0-0.015,0-0.021,0l-4.15,0.004l-0.242-227.848c-0.005-4.459-3.62-8.069-8.077-8.069
				c-0.002,0-0.006,0-0.009,0c-4.462,0.005-8.074,3.625-8.069,8.086l0.243,227.848l-72.508,0.078l-0.046-43.393l-0.146-138.305
				c0-0.009-0.001-0.016-0.001-0.025l-0.144-136.009c-0.003-2.964,1.147-5.752,3.241-7.849c2.094-2.098,4.878-3.255,7.841-3.258
				l50.322-0.053c0.004,0,0.009,0,0.013,0c2.958,0,5.74,1.15,7.834,3.241c2.098,2.094,3.256,4.878,3.258,7.843l0.069,61.516
				c0.005,4.458,3.62,8.068,8.077,8.068c0.003,0,0.006,0,0.01,0c4.461-0.005,8.073-3.625,8.068-8.087l-0.069-61.515
				c-0.009-7.279-2.849-14.118-8.002-19.26c-5.145-5.135-11.978-7.961-19.244-7.961c-0.01,0-0.022,0-0.03,0l-50.322,0.053
				c-7.279,0.009-14.119,2.85-19.261,8.002c-5.141,5.152-7.969,12-7.96,19.277l0.118,111.162c-3.392-1.515-7.146-2.365-11.097-2.365
				l-50.322,0.054c-3.888,0.004-7.647,0.824-11.092,2.365l-0.021-20.678c-0.017-15.01-12.24-27.219-27.278-27.219l-50.322,0.053
				c-15.025,0.017-27.236,12.254-27.218,27.279l0.087,82.484c-3.392-1.515-7.146-2.366-11.097-2.366l-50.321,0.054
				c-3.888,0.004-7.648,0.825-11.093,2.366l-0.024-22.692c-0.017-15.01-12.24-27.219-27.278-27.219l-50.321,0.054
				c-7.279,0.008-14.119,2.85-19.261,8.001c-5.141,5.152-7.969,11.999-7.961,19.277l0.179,167.505l-4.145,0.004
				c-5.85,0.005-11.347,2.289-15.478,6.43c-4.131,4.141-6.403,9.642-6.396,15.49c0.012,12.068,9.832,21.877,21.898,21.876
				c0.006,0,0.015,0,0.022,0l339.255-0.362c4.462-0.005,8.074-3.625,8.069-8.086s-3.648-8.05-8.086-8.069l-339.254,0.362
				c-0.002,0-0.004,0-0.006,0c-3.164,0-5.739-2.572-5.742-5.736c-0.002-1.535,0.594-2.978,1.678-4.062
				c1.083-1.086,2.524-1.684,4.058-1.685l73.567-0.079L123,484.257l88.665-0.095l43.886-0.046l155.149-0.166l66.955-0.07
				c0.004,0,0.01,0,0.014,0l12.211-0.013c0.002,0,0.004,0,0.006,0c3.164,0,5.738,2.572,5.741,5.736
				c0.002,1.536-0.594,2.979-1.677,4.063c-1.083,1.086-2.524,1.683-4.057,1.684l-99.935,0.108c-4.462,0.005-8.074,3.625-8.069,8.086
				c0.005,4.459,3.62,8.069,8.077,8.069c0.002,0,0.006,0,0.009,0l99.934-0.108c5.85-0.005,11.346-2.29,15.477-6.431
				c4.131-4.14,6.402-9.641,6.395-15.489C511.771,477.515,501.951,467.707,489.886,467.707z M95.474,468.128l-53.078,0.056
				L42.218,300.68c-0.003-2.964,1.147-5.752,3.241-7.849c2.094-2.097,4.879-3.253,7.842-3.257l50.332-0.054
				c6.111,0,11.087,4.971,11.094,11.082l0.075,70.583l0.102,96.922L95.474,468.128z M192.805,468.024l-61.745,0.066l-0.127-119.918
				c-0.006-6.118,4.965-11.1,11.083-11.106l50.332-0.054c6.111,0,11.087,4.971,11.094,11.083l0.101,94.562l0.027,25.355
				L192.805,468.024z M255.733,467.957l-36.009,0.039l-0.242-227.274c-0.005-6.118,4.965-11.102,11.081-11.108l50.333-0.053
				c6.111,0,11.087,4.971,11.094,11.082l0.165,155.214l0.076,72.061L255.733,467.957z M318.659,467.89l-10.273,0.011l-0.193-181.701
				c-0.001-2.964,1.149-5.751,3.242-7.849c2.093-2.097,4.878-3.254,7.841-3.257l50.333-0.054c6.106,0,11.08,4.964,11.094,11.069
				l0.193,181.714L318.659,467.89z"/>
			<path d="M78.341,202.301c0.003,0,0.023,0,0.026,0c6.892-0.008,13.154-2.731,17.787-7.147l45.444,24.327
				c-0.254,1.47-0.391,2.97-0.39,4.493c0.016,14.237,11.609,25.819,25.844,25.819c0.003,0,0.025,0,0.028,0
				c14.25-0.016,25.833-11.622,25.82-25.873c-0.005-5.06-1.48-9.781-4.011-13.769l57.338-69.577
				c2.909,1.137,6.069,1.769,9.375,1.769c0.003,0,0.025,0,0.028,0c6.842-0.008,13.272-2.657,18.133-7.46l45.02,23.081
				c-0.206,1.317-0.314,2.666-0.313,4.04c0.016,14.237,11.61,25.818,25.845,25.818c0.003,0,0.025,0,0.028,0
				c6.903-0.008,13.392-2.703,18.269-7.589c4.875-4.886,7.558-11.379,7.551-18.284c-0.006-6.101-2.144-11.711-5.703-16.134
				l61.763-94.983c2.111,0.56,4.326,0.862,6.61,0.862c0.003,0,0.025,0,0.028,0c6.904-0.008,13.392-2.703,18.269-7.589
				c4.875-4.887,7.558-11.38,7.551-18.285C458.667,11.583,447.073,0,432.81,0c-6.904,0.008-13.392,2.703-18.269,7.589
				c-4.875,4.887-7.558,11.38-7.551,18.285c0.006,6.102,2.145,11.712,5.703,16.135l-61.765,94.985
				c-2.119-0.562-4.343-0.866-6.637-0.866c-7.057,0.008-13.457,2.86-18.121,7.467l-45.029-23.086
				c0.206-1.325,0.313-2.674,0.312-4.041c-0.016-14.237-11.61-25.819-25.873-25.819c-6.904,0.008-13.391,2.703-18.269,7.589
				c-4.875,4.887-7.558,11.38-7.551,18.285c0.005,5.06,1.48,9.78,4.01,13.769l-57.341,69.581c-2.915-1.139-6.083-1.773-9.399-1.773
				c-6.687,0.008-12.979,2.543-17.799,7.141l-45.436-24.323c0.255-1.459,0.395-2.958,0.393-4.491
				c-0.014-14.238-11.608-25.819-25.871-25.819c-6.904,0.006-13.393,2.702-18.27,7.588c-4.875,4.886-7.558,11.379-7.552,18.285
				C52.508,190.718,64.103,202.301,78.341,202.301z M425.976,19.001c1.829-1.832,4.262-2.843,6.861-2.846
				c5.337,0,9.685,4.342,9.691,9.681c0.003,2.589-1.003,5.024-2.831,6.856c-1.829,1.832-4.262,2.843-6.849,2.846l-0.012,8.077
				v-8.077c-5.337,0-9.685-4.342-9.691-9.681C423.142,23.267,424.147,20.833,425.976,19.001z M344.319,152.282
				c5.337,0,9.685,4.343,9.691,9.682c0.003,2.588-1.003,5.023-2.831,6.855c-1.829,1.832-4.262,2.843-6.85,2.846l-0.012,8.077v-8.077
				c-5.337,0-9.685-4.342-9.691-9.68C334.621,156.64,338.963,152.287,344.319,152.282z M248.744,109.65
				c1.829-1.832,4.262-2.843,6.861-2.846c5.337,0,9.685,4.342,9.691,9.681c0.003,2.589-1.003,5.024-2.831,6.856
				c-1.829,1.832-4.262,2.843-6.85,2.846l-0.012,8.077v-8.077c-5.337,0-9.685-4.342-9.691-9.681
				C245.91,113.916,246.915,111.482,248.744,109.65z M160.195,217.101c1.829-1.832,4.262-2.843,6.861-2.846
				c5.337,0,9.685,4.342,9.691,9.68c0.005,5.345-4.338,9.698-9.682,9.703l-0.012,8.077v-8.077c-5.336,0-9.684-4.342-9.69-9.681
				C157.36,221.368,158.365,218.933,160.195,217.101z M71.479,169.607c1.829-1.832,4.262-2.843,6.862-2.845
				c5.337,0,9.684,4.342,9.69,9.68c0.005,5.345-4.337,9.698-9.68,9.704l-0.011,8.077v-8.077c-5.339,0-9.687-4.343-9.693-9.681
				C68.646,173.875,69.651,171.44,71.479,169.607z"/>
		</g>
	</g>
</g>
<g>
</g>
<g>
</g>
<g>
</g>
<g>
</g>
<g>
</g>
<g>
</g>
<g>
</g>
<g>
</g>
<g>
</g>
<g>
</g>
<g>
</g>
<g>
</g>
<g>
</g>
<g>
</g>
<g>
</g>
</svg>
