<svg height="512pt" viewBox="0 -43 512 512" width="512pt" xmlns="http://www.w3.org/2000/svg"><path d="m393.464844 103.523438 15.085937 15.082031-79.667969 79.667969-15.085937-15.085938zm0 0"/><path d="m298.667969 256c-23.46875 0-42.667969-19.199219-42.667969-42.667969 0-23.464843 19.199219-42.664062 42.667969-42.664062 23.464843 0 42.664062 19.199219 42.664062 42.664062 0 23.46875-19.199219 42.667969-42.664062 42.667969zm0-64c-11.734375 0-21.335938 9.601562-21.335938 21.332031 0 11.734375 9.601563 21.335938 21.335938 21.335938 11.730469 0 21.332031-9.601563 21.332031-21.335938 0-11.730469-9.601562-21.332031-21.332031-21.332031zm0 0"/><path d="m298.667969 426.667969c-76.667969 0-147.867188-41.46875-185.734375-108.269531l18.53125-10.53125c34.136718 60.132812 98.136718 97.464843 167.203125 97.464843 105.867187 0 192-86.132812 192-192 0-105.867187-86.132813-192-192-192-68.933594 0-132.933594 37.203125-167.066407 97.203125l-18.535156-10.535156c37.867188-66.667969 108.933594-108 185.601563-108 117.597656 0 213.332031 95.734375 213.332031 213.332031 0 117.601563-95.734375 213.335938-213.332031 213.335938zm0 0"/><path d="m42.667969 266.667969h138.664062v21.332031h-138.664062zm0 0"/><path d="m0 202.667969h138.667969v21.332031h-138.667969zm0 0"/><path d="m42.667969 138.667969h138.664062v21.332031h-138.664062zm0 0"/></svg>